{
    "asset" : {
        "generator" : "Khronos glTF Blender I/O v1.1.46",
        "version" : "2.0"
    },
    "scene" : 0,
    "scenes" : [
        {
            "name" : "Scene",
            "nodes" : [
                0,
                1,
                2,
                3,
                4,
                5
            ]
        }
    ],
    "nodes" : [
        {
            "mesh" : 0,
            "name" : "Cylinder.001",
            "rotation" : [
                0.5,
                0.5,
                -0.5,
                0.4999999701976776
            ],
            "scale" : [
                0.08308395743370056,
                0.08308395743370056,
                0.08308395743370056
            ],
            "translation" : [
                0.06108524650335312,
                3.428779125213623,
                9.016522380989045e-05
            ]
        },
        {
            "mesh" : 1,
            "name" : "Sphere",
            "scale" : [
                0.14409106969833374,
                0.05580059438943863,
                0.05580059438943863
            ],
            "translation" : [
                0.13184002041816711,
                3.4292051792144775,
                9.016522380989045e-05
            ]
        },
        {
            "mesh" : 2,
            "name" : "Plane.002",
            "rotation" : [
                -0.32758286595344543,
                -0.32758286595344543,
                0.6266493201255798,
                -0.6266494989395142
            ],
            "scale" : [
                0.41509371995925903,
                0.41509371995925903,
                0.41509371995925903
            ],
            "translation" : [
                0.1610965132713318,
                3.4286346435546875,
                0.0003422254230827093
            ]
        },
        {
            "mesh" : 3,
            "name" : "Cylinder",
            "scale" : [
                0.08546876907348633,
                1.70427405834198,
                0.08546876907348633
            ],
            "translation" : [
                0.06108524650335312,
                1.6872029304504395,
                9.016522380989045e-05
            ]
        },
        {
            "name" : "Lamp",
            "rotation" : [
                0.16907575726509094,
                0.7558803558349609,
                -0.27217137813568115,
                0.570947527885437
            ],
            "translation" : [
                8.474631309509277,
                5.5530548095703125,
                -2.817680597305298
            ]
        },
        {
            "name" : "Camera",
            "rotation" : [
                0.48884791135787964,
                0.36845582723617554,
                -0.22275079786777496,
                0.7587161064147949
            ],
            "translation" : [
                2.208347797393799,
                4.31566858291626,
                1.713758945465088
            ]
        }
    ],
    "materials" : [
        {
            "doubleSided" : true,
            "name" : "Blades",
            "pbrMetallicRoughness" : {}
        }
    ],
    "meshes" : [
        {
            "name" : "Cylinder.002",
            "primitives" : [
                {
                    "attributes" : {
                        "POSITION" : 0,
                        "NORMAL" : 1
                    },
                    "indices" : 2,
                    "material" : 0
                }
            ]
        },
        {
            "name" : "Sphere",
            "primitives" : [
                {
                    "attributes" : {
                        "POSITION" : 3,
                        "NORMAL" : 4
                    },
                    "indices" : 5,
                    "material" : 0
                }
            ]
        },
        {
            "name" : "Plane.002",
            "primitives" : [
                {
                    "attributes" : {
                        "POSITION" : 6,
                        "NORMAL" : 7
                    },
                    "indices" : 8,
                    "material" : 0
                }
            ]
        },
        {
            "name" : "Cylinder.001",
            "primitives" : [
                {
                    "attributes" : {
                        "POSITION" : 9,
                        "NORMAL" : 10
                    },
                    "indices" : 11,
                    "material" : 0
                }
            ]
        }
    ],
    "accessors" : [
        {
            "bufferView" : 0,
            "componentType" : 5126,
            "count" : 50,
            "max" : [
                0.9448763132095337,
                1,
                0.8090171813964844
            ],
            "min" : [
                -0.9448760151863098,
                -3.2918689250946045,
                -0.9882442951202393
            ],
            "type" : "VEC3"
        },
        {
            "bufferView" : 1,
            "componentType" : 5126,
            "count" : 50,
            "type" : "VEC3"
        },
        {
            "bufferView" : 2,
            "componentType" : 5123,
            "count" : 288,
            "type" : "SCALAR"
        },
        {
            "bufferView" : 3,
            "componentType" : 5126,
            "count" : 257,
            "max" : [
                0.9999988079071045,
                1,
                0.9999990463256836
            ],
            "min" : [
                -1.6391277313232422e-07,
                -1,
                -0.9999997019767761
            ],
            "type" : "VEC3"
        },
        {
            "bufferView" : 4,
            "componentType" : 5126,
            "count" : 257,
            "type" : "VEC3"
        },
        {
            "bufferView" : 5,
            "componentType" : 5123,
            "count" : 1440,
            "type" : "SCALAR"
        },
        {
            "bufferView" : 6,
            "componentType" : 5126,
            "count" : 390,
            "max" : [
                2.499671697616577,
                0.06750121712684631,
                3.3821585178375244
            ],
            "min" : [
                -3.3545126914978027,
                -3.332659730403975e-07,
                -2.421018123626709
            ],
            "type" : "VEC3"
        },
        {
            "bufferView" : 7,
            "componentType" : 5126,
            "count" : 390,
            "type" : "VEC3"
        },
        {
            "bufferView" : 8,
            "componentType" : 5123,
            "count" : 2304,
            "type" : "SCALAR"
        },
        {
            "bufferView" : 9,
            "componentType" : 5126,
            "count" : 524,
            "max" : [
                0.9852036237716675,
                1,
                0.9852038621902466
            ],
            "min" : [
                -0.9852039813995361,
                -1,
                -0.985203742980957
            ],
            "type" : "VEC3"
        },
        {
            "bufferView" : 10,
            "componentType" : 5126,
            "count" : 524,
            "type" : "VEC3"
        },
        {
            "bufferView" : 11,
            "componentType" : 5123,
            "count" : 960,
            "type" : "SCALAR"
        }
    ],
    "bufferViews" : [
        {
            "buffer" : 0,
            "byteLength" : 600,
            "byteOffset" : 0
        },
        {
            "buffer" : 0,
            "byteLength" : 600,
            "byteOffset" : 600
        },
        {
            "buffer" : 0,
            "byteLength" : 576,
            "byteOffset" : 1200
        },
        {
            "buffer" : 0,
            "byteLength" : 3084,
            "byteOffset" : 1776
        },
        {
            "buffer" : 0,
            "byteLength" : 3084,
            "byteOffset" : 4860
        },
        {
            "buffer" : 0,
            "byteLength" : 2880,
            "byteOffset" : 7944
        },
        {
            "buffer" : 0,
            "byteLength" : 4680,
            "byteOffset" : 10824
        },
        {
            "buffer" : 0,
            "byteLength" : 4680,
            "byteOffset" : 15504
        },
        {
            "buffer" : 0,
            "byteLength" : 4608,
            "byteOffset" : 20184
        },
        {
            "buffer" : 0,
            "byteLength" : 6288,
            "byteOffset" : 24792
        },
        {
            "buffer" : 0,
            "byteLength" : 6288,
            "byteOffset" : 31080
        },
        {
            "buffer" : 0,
            "byteLength" : 1920,
            "byteOffset" : 37368
        }
    ],
    "buffers" : [
        {
            "byteLength" : 39288,
            "uri" : "data:application/octet-stream;base64,"
        }
    ]
}
